<?xml version="1.0" encoding="utf-8"?>
<!-- Generator: Adobe Illustrator 16.0.0, SVG Export Plug-In . SVG Version: 6.00 Build 0)  -->
<!DOCTYPE svg PUBLIC "-//W3C//DTD SVG 1.1//EN" "http://www.w3.org/Graphics/SVG/1.1/DTD/svg11.dtd">
<svg version="1.1" id="Layer_1" xmlns="http://www.w3.org/2000/svg" xmlns:xlink="http://www.w3.org/1999/xlink" x="0px" y="0px"
	 width="595.279px" height="417.042px" viewBox="0 198.243 595.279 417.042" enable-background="new 0 198.243 595.279 417.042"
	 xml:space="preserve">
<g id="group" transform="translate(704.974 57.945) rotate(180)">
	<g id="group-2" transform="translate(9.772 0.549)">
		<path id="path" d="M466.558-153.172c-7.495,0.011-14.757-2.609-20.518-7.404c-10.24-9.343-10.969-25.218-1.626-35.458
			c0.517-0.566,1.06-1.109,1.626-1.625l166.97-150.812L446.04-499.315c-10.24-9.344-10.969-25.219-1.626-35.459
			c0.517-0.566,1.06-1.109,1.626-1.625c11.902-9.893,29.165-9.893,41.067,0l207.975,187.895L487.045-160.608
			C481.416-155.604,474.086-152.944,466.558-153.172z"/>
	</g>
	<g id="group-3" transform="translate(-1 5.977)">
		<path id="path-2" d="M633.476-325.601H139.375c-14.729,1.011-27.486-10.109-28.498-24.837
			c-1.012-14.729,10.109-27.487,24.838-28.499c1.219-0.084,2.441-0.084,3.66,0h494.101c14.728-1.01,27.486,10.109,28.498,24.837
			c1.011,14.728-10.109,27.486-24.837,28.498C635.918-325.518,634.695-325.518,633.476-325.601z"/>
	</g>
</g>
</svg>
