<svg xmlns="http://www.w3.org/2000/svg" viewBox="5132 269 17 17">
  <g id="time" transform="translate(5132 269)">
    <path id="Path_81" data-name="Path 81" d="M8.5,0A8.5,8.5,0,1,0,17,8.5,8.51,8.51,0,0,0,8.5,0Zm0,16.433A7.933,7.933,0,1,1,16.433,8.5,7.942,7.942,0,0,1,8.5,16.433Z"/>
    <path id="Path_82" data-name="Path 82" d="M17.817,6a.283.283,0,0,0-.283.283V12.8h-4.25a.283.283,0,0,0,0,.567h4.533a.283.283,0,0,0,.283-.283v-6.8A.283.283,0,0,0,17.817,6Z" transform="translate(-9.317 -4.3)"/>
  </g>
</svg>
