<svg xmlns="http://www.w3.org/2000/svg" xmlns:xlink="http://www.w3.org/1999/xlink" viewBox="2726 578 15.486 12.582">
  <defs>
    <style>
      .cls-1 {
        fill: none;
        stroke: #000;
      }

      .cls-2 {
        opacity: 0.877;
      }

      .cls-3 {
        opacity: 0.903;
        clip-path: url(#clip-path);
      }

      .cls-4 {
        fill: #2b2e34;
      }
    </style>
    <clipPath id="clip-path">
      <path id="path" class="cls-1" d="M0-332.8H15.486v12.582H0Z" transform="translate(0 332.801)"/>
    </clipPath>
  </defs>
  <g id="group" class="cls-2" transform="translate(2727 577)">
    <g id="group-2" data-name="group" class="cls-3" transform="translate(-1 1)">
      <path id="path-2" data-name="path" class="cls-4" d="M14.518-327.962H12.582v-.968h1.936Zm-6.775,6.715a4.3,4.3,0,0,1-4.295-4.3,4.3,4.3,0,0,1,4.295-4.295,4.3,4.3,0,0,1,4.295,4.295,4.3,4.3,0,0,1-4.295,4.3m6.775-9.618H11.13c-.242-.968-.484-1.936-1.452-1.936H5.807c-.968,0-1.21.968-1.452,1.936H.968A.971.971,0,0,0,0-329.9v8.711a.971.971,0,0,0,.968.968h13.55a.971.971,0,0,0,.968-.968V-329.9a.971.971,0,0,0-.968-.968M4.6-325.542A3.145,3.145,0,0,0,7.743-322.4a3.145,3.145,0,0,0,3.145-3.146,3.145,3.145,0,0,0-3.145-3.145A3.145,3.145,0,0,0,4.6-325.542" transform="translate(0 332.801)"/>
    </g>
  </g>
</svg>
