<svg xmlns="http://www.w3.org/2000/svg" viewBox="1716.914 199.258 43.742 43.742">
  <defs>
    <style>
      .cls-1 {
        fill: #fd0606;
      }

      .cls-2 {
        fill: red;
      }

      .cls-3 {
        fill: #ff0505;
      }
    </style>
  </defs>
  <g id="warning" transform="translate(1716.914 199.258)">
    <path id="Path_1" data-name="Path 1" class="cls-1" d="M21.871,0A21.871,21.871,0,1,0,43.742,21.871,21.9,21.9,0,0,0,21.871,0Zm0,42.06A20.189,20.189,0,1,1,42.06,21.871,20.212,20.212,0,0,1,21.871,42.06Z"/>
    <path id="Path_2" data-name="Path 2" class="cls-2" d="M25.841,10a.841.841,0,0,0-.841.841V29.348a.841.841,0,1,0,1.682,0V10.841A.841.841,0,0,0,25.841,10Z" transform="translate(-3.97 -1.588)"/>
    <path id="Path_3" data-name="Path 3" class="cls-3" d="M25.841,37a.841.841,0,0,0-.841.841v1.682a.841.841,0,1,0,1.682,0V37.841A.841.841,0,0,0,25.841,37Z" transform="translate(-3.97 -5.876)"/>
  </g>
</svg>
