<svg xmlns="http://www.w3.org/2000/svg" viewBox="5132 217.573 17 17">
  <g id="calendar" transform="translate(5132 212.323)">
    <g id="Group_21" data-name="Group 21" transform="translate(0 5.25)">
      <path id="Path_80" data-name="Path 80" d="M14.068,6.509V5.25h-.722V6.505H8.861V5.25H8.139V6.505H3.653V5.25H2.932V6.505H0V22.25H17V6.509ZM.725,7.246H2.932V9.019h.722V7.246H8.139V9.019h.722V7.246h4.486V9.019h.722V7.246h2.207V11.94H.725ZM16.278,21.513H.725V12.681H16.278Z" transform="translate(0 -5.25)"/>
      <rect id="Rectangle_107" data-name="Rectangle 107" width="1.735" height="0.737" transform="translate(2.859 9.278)"/>
      <rect id="Rectangle_108" data-name="Rectangle 108" width="1.735" height="0.737" transform="translate(2.859 11.753)"/>
      <rect id="Rectangle_109" data-name="Rectangle 109" width="1.735" height="0.737" transform="translate(2.859 14.192)"/>
      <rect id="Rectangle_110" data-name="Rectangle 110" width="1.735" height="0.737" transform="translate(7.633 9.278)"/>
      <rect id="Rectangle_111" data-name="Rectangle 111" width="1.735" height="0.737" transform="translate(7.633 11.753)"/>
      <rect id="Rectangle_112" data-name="Rectangle 112" width="1.735" height="0.737" transform="translate(7.633 14.192)"/>
      <rect id="Rectangle_113" data-name="Rectangle 113" width="1.735" height="0.737" transform="translate(12.368 9.278)"/>
      <rect id="Rectangle_114" data-name="Rectangle 114" width="1.735" height="0.737" transform="translate(12.368 11.753)"/>
      <rect id="Rectangle_115" data-name="Rectangle 115" width="1.735" height="0.737" transform="translate(12.368 14.192)"/>
    </g>
  </g>
</svg>
